<mxfile host="app.diagrams.net" modified="2023-04-24T12:54:15.115Z" agent="Mozilla/5.0 (Windows NT 10.0; Win64; x64) AppleWebKit/537.36 (KHTML, like Gecko) Chrome/112.0.0.0 Safari/537.36" etag="As2KtE-V3hVPA5GLdKZ3" version="21.1.8" type="device">
  <diagram name="第 1 页" id="gO3wlHdf_kf9yoMwwkms">
    <mxGraphModel dx="819" dy="432" grid="1" gridSize="10" guides="1" tooltips="1" connect="1" arrows="1" fold="1" page="1" pageScale="1" pageWidth="827" pageHeight="1169" math="0" shadow="0">
      <root>
        <mxCell id="0" />
        <mxCell id="1" parent="0" />
        <mxCell id="hu0aQqYBzMLyPJlfD7g3-1" value="跑马灯" style="rounded=0;whiteSpace=wrap;html=1;fontFamily=思源黑体 Heavy;fontSize=24;" vertex="1" parent="1">
          <mxGeometry x="320" y="150" width="120" height="60" as="geometry" />
        </mxCell>
        <mxCell id="hu0aQqYBzMLyPJlfD7g3-2" value="外部中断&lt;br style=&quot;font-size: 24px;&quot;&gt;（单）" style="rounded=0;whiteSpace=wrap;html=1;fontFamily=思源黑体 Heavy;fontSize=24;" vertex="1" parent="1">
          <mxGeometry x="320" y="290" width="120" height="60" as="geometry" />
        </mxCell>
        <mxCell id="hu0aQqYBzMLyPJlfD7g3-4" value="外部中断&lt;br style=&quot;font-size: 24px;&quot;&gt;（双）" style="rounded=0;whiteSpace=wrap;html=1;fontFamily=思源黑体 Heavy;fontSize=24;" vertex="1" parent="1">
          <mxGeometry x="320" y="410" width="120" height="60" as="geometry" />
        </mxCell>
        <mxCell id="hu0aQqYBzMLyPJlfD7g3-9" value="" style="endArrow=classic;html=1;rounded=0;exitX=1;exitY=0.5;exitDx=0;exitDy=0;entryX=0;entryY=0.5;entryDx=0;entryDy=0;" edge="1" parent="1" source="hu0aQqYBzMLyPJlfD7g3-1" target="hu0aQqYBzMLyPJlfD7g3-1">
          <mxGeometry width="50" height="50" relative="1" as="geometry">
            <mxPoint x="390" y="410" as="sourcePoint" />
            <mxPoint x="440" y="360" as="targetPoint" />
            <Array as="points">
              <mxPoint x="480" y="180" />
              <mxPoint x="480" y="230" />
              <mxPoint x="280" y="230" />
              <mxPoint x="280" y="180" />
            </Array>
          </mxGeometry>
        </mxCell>
        <mxCell id="hu0aQqYBzMLyPJlfD7g3-15" value="" style="endArrow=classic;html=1;rounded=0;entryX=0.67;entryY=0.014;entryDx=0;entryDy=0;entryPerimeter=0;" edge="1" parent="1" target="hu0aQqYBzMLyPJlfD7g3-2">
          <mxGeometry width="50" height="50" relative="1" as="geometry">
            <mxPoint x="400" y="230" as="sourcePoint" />
            <mxPoint x="380" y="310" as="targetPoint" />
          </mxGeometry>
        </mxCell>
        <mxCell id="hu0aQqYBzMLyPJlfD7g3-16" value="" style="endArrow=classic;html=1;rounded=0;exitX=0.333;exitY=0;exitDx=0;exitDy=0;exitPerimeter=0;" edge="1" parent="1" source="hu0aQqYBzMLyPJlfD7g3-2">
          <mxGeometry width="50" height="50" relative="1" as="geometry">
            <mxPoint x="410" y="240" as="sourcePoint" />
            <mxPoint x="360" y="230" as="targetPoint" />
          </mxGeometry>
        </mxCell>
        <mxCell id="hu0aQqYBzMLyPJlfD7g3-17" value="" style="endArrow=classic;html=1;rounded=0;entryX=0.67;entryY=0.014;entryDx=0;entryDy=0;entryPerimeter=0;" edge="1" parent="1">
          <mxGeometry width="50" height="50" relative="1" as="geometry">
            <mxPoint x="399.71" y="350" as="sourcePoint" />
            <mxPoint x="399.71" y="411" as="targetPoint" />
          </mxGeometry>
        </mxCell>
        <mxCell id="hu0aQqYBzMLyPJlfD7g3-18" value="" style="endArrow=classic;html=1;rounded=0;exitX=0.333;exitY=0;exitDx=0;exitDy=0;exitPerimeter=0;" edge="1" parent="1">
          <mxGeometry width="50" height="50" relative="1" as="geometry">
            <mxPoint x="359.71" y="410" as="sourcePoint" />
            <mxPoint x="359.71" y="350" as="targetPoint" />
          </mxGeometry>
        </mxCell>
      </root>
    </mxGraphModel>
  </diagram>
</mxfile>
